<?xml version="1.0" encoding="UTF-8"?> <svg xmlns="http://www.w3.org/2000/svg" width="92" height="87" viewBox="0 0 92 87" fill="none"> <path d="M28.6289 57H13.6292V65.2021H8.91021V49.6406H12.0562L16.2134 10.8774H30.9884V49.6406H33.3479V65.2021H28.6289V57ZM19.3032 49.6406H23.5728V18.1806H22.5054L19.3032 49.6406ZM43.1273 18.1806L42.397 19.9222V47.8991L43.1273 49.6406H46.2172L46.8351 47.8991V19.9222L46.2172 18.1806H43.1273ZM38.4083 57L35.0938 51.1013V16.7762L38.6892 10.8774H50.6553L54.2507 16.7762V51.1013L50.88 57H38.4083ZM68.6179 57H68.3932L63.8427 34.1353H63.5618V57H57.1575V10.8774H64.9101L68.3932 30.9893H68.6179L72.1572 10.8774H79.966V57H73.4493V34.1353H73.2246L68.6179 57Z" fill="url(#paint0_linear_1_59)"></path> <path d="M11.8593 57.6766L9.69292 68.9706L12.3503 81.3911H8.53752L6.28451 70.6748H5.96677V81.3911H2.12508V57.6766H5.96677V67.5553H6.28451L8.13314 57.6766H11.8593ZM22.3754 57.6766V78.3582L20.6712 81.3911H13.8255L13.2478 77.6072H18.216L18.6781 76.7118V73.3033H14.3743L12.6701 70.2704V57.6766H16.5695V68.624L16.8873 69.5194H18.6781V57.6766H22.3754ZM34.3337 57.6766V81.3911H30.5209V61.4317H29.9721L27.9502 81.3911H23.5597L22.982 77.6072H24.5995L26.737 57.6766H34.3337ZM41.3458 77.6072L41.7502 76.7118V71.7725L41.3458 70.9059H39.8726V77.6072H41.3458ZM36.031 57.6766H39.8726V67.6997H43.7432L45.3897 70.7326V78.3582L43.7432 81.3911H36.031V57.6766ZM52.2257 61.4317H50.2326V81.3911H46.4487V61.4317H44.1668L45.3222 57.6766H53.3811L52.2257 61.4317ZM63.8692 57.6766V78.3582L62.165 81.3911H55.3193L54.7416 77.6072H59.7098L60.1719 76.7118V73.3033H55.8681L54.1639 70.2704V57.6766H58.0633V68.624L58.3811 69.5194H60.1719V57.6766H63.8692ZM65.3954 57.6766H73.1076L74.7541 60.7095V68.3063L73.1076 71.3392H69.2371V81.3911H65.3954V57.6766ZM69.2371 61.4317V68.133H70.7102L71.1146 67.2664V62.3271L70.7102 61.4317H69.2371ZM81.4574 77.6072L81.8618 76.7118V71.7725L81.4574 70.9059H79.9843V77.6072H81.4574ZM76.1426 57.6766H79.9843V67.6997H83.8548L85.5013 70.7326V78.3582L83.8548 81.3911H76.1426V57.6766ZM90.6717 81.3911H86.8877V57.6766H90.6717V81.3911Z" fill="url(#paint1_linear_1_59)"></path> <path d="M11.8593 57.6766L9.69292 68.9706L12.3503 81.3911H8.53752L6.28451 70.6748H5.96677V81.3911H2.12508V57.6766H5.96677V67.5553H6.28451L8.13314 57.6766H11.8593ZM22.3754 57.6766V78.3582L20.6712 81.3911H13.8255L13.2478 77.6072H18.216L18.6781 76.7118V73.3033H14.3743L12.6701 70.2704V57.6766H16.5695V68.624L16.8873 69.5194H18.6781V57.6766H22.3754ZM34.3337 57.6766V81.3911H30.5209V61.4317H29.9721L27.9502 81.3911H23.5597L22.982 77.6072H24.5995L26.737 57.6766H34.3337ZM41.3458 77.6072L41.7502 76.7118V71.7725L41.3458 70.9059H39.8726V77.6072H41.3458ZM36.031 57.6766H39.8726V67.6997H43.7432L45.3897 70.7326V78.3582L43.7432 81.3911H36.031V57.6766ZM52.2257 61.4317H50.2326V81.3911H46.4487V61.4317H44.1668L45.3222 57.6766H53.3811L52.2257 61.4317ZM63.8692 57.6766V78.3582L62.165 81.3911H55.3193L54.7416 77.6072H59.7098L60.1719 76.7118V73.3033H55.8681L54.1639 70.2704V57.6766H58.0633V68.624L58.3811 69.5194H60.1719V57.6766H63.8692ZM65.3954 57.6766H73.1076L74.7541 60.7095V68.3063L73.1076 71.3392H69.2371V81.3911H65.3954V57.6766ZM69.2371 61.4317V68.133H70.7102L71.1146 67.2664V62.3271L70.7102 61.4317H69.2371ZM81.4574 77.6072L81.8618 76.7118V71.7725L81.4574 70.9059H79.9843V77.6072H81.4574ZM76.1426 57.6766H79.9843V67.6997H83.8548L85.5013 70.7326V78.3582L83.8548 81.3911H76.1426V57.6766ZM90.6717 81.3911H86.8877V57.6766H90.6717V81.3911Z" fill="url(#paint2_linear_1_59)" fill-opacity="0.39"></path> <defs> <linearGradient id="paint0_linear_1_59" x1="13.8" y1="14.4891" x2="83.7729" y2="17.2903" gradientUnits="userSpaceOnUse"> <stop stop-color="#9B6FF8"></stop> <stop offset="1" stop-color="#7944F4"></stop> </linearGradient> <linearGradient id="paint1_linear_1_59" x1="77.349" y1="36.774" x2="-4.74066" y2="59.9114" gradientUnits="userSpaceOnUse"> <stop stop-color="#FFC771"></stop> <stop offset="1" stop-color="#FFC858"></stop> </linearGradient> <linearGradient id="paint2_linear_1_59" x1="107.307" y1="80.4581" x2="-10.6883" y2="57.5485" gradientUnits="userSpaceOnUse"> <stop stop-color="white" stop-opacity="0"></stop> <stop offset="0.432292" stop-color="white"></stop> <stop offset="1" stop-color="white" stop-opacity="0"></stop> </linearGradient> </defs> </svg> 