<?xml version="1.0" encoding="UTF-8"?> <svg xmlns="http://www.w3.org/2000/svg" width="222" height="174" viewBox="0 0 222 174" fill="none"> <path d="M0 7C0 3.134 3.13401 0 7 0H215C218.866 0 222 3.13401 222 7V152.643C222 156.328 219.143 159.382 215.466 159.627L7.46592 173.502C3.42554 173.771 0 170.567 0 166.518V7Z" fill="url(#paint0_linear_1_1807)"></path> <path opacity="0.58" d="M6.5 9C6.5 5.41015 9.41015 2.5 13 2.5H209C212.59 2.5 215.5 5.41015 215.5 9V145.492C215.5 148.915 212.846 151.751 209.431 151.978L13.4311 165.005C9.67984 165.254 6.5 162.279 6.5 158.519V9Z" stroke="url(#paint1_linear_1_1807)"></path> <defs> <linearGradient id="paint0_linear_1_1807" x1="111" y1="2.31054e-06" x2="169.741" y2="191.885" gradientUnits="userSpaceOnUse"> <stop stop-color="#3E3E3E"></stop> <stop offset="1" stop-color="#3E3E3E" stop-opacity="0.27"></stop> </linearGradient> <linearGradient id="paint1_linear_1_1807" x1="84.75" y1="-70" x2="177.704" y2="160.336" gradientUnits="userSpaceOnUse"> <stop stop-color="white"></stop> <stop offset="1" stop-color="white" stop-opacity="0"></stop> </linearGradient> </defs> </svg> 